<svg width="226" height="256" viewBox="0 0 226 256" fill="none" xmlns="http://www.w3.org/2000/svg">
<path d="M186 32H58C55.8783 32 53.8434 32.8429 52.3431 34.3431C50.8429 35.8434 50 37.8783 50 40V80H10C7.87827 80 5.84344 80.8429 4.34315 82.3431C2.84286 83.8434 2 85.8783 2 88V216C2 218.122 2.84286 220.157 4.34315 221.657C5.84344 223.157 7.87827 224 10 224H138C140.122 224 142.157 223.157 143.657 221.657C145.157 220.157 146 218.122 146 216V176H186C188.122 176 190.157 175.157 191.657 173.657C193.157 172.157 194 170.122 194 168V40C194 37.8783 193.157 35.8434 191.657 34.3431C190.157 32.8429 188.122 32 186 32ZM130 208H18V96H130V208ZM178 160H146V88C146 85.8783 145.157 83.8434 143.657 82.3431C142.157 80.8429 140.122 80 138 80H66V48H178V160Z" fill="black"/>
</svg>
